<svg id="Layer_1" data-name="Layer 1" xmlns="http://www.w3.org/2000/svg" width="1280" height="1024" viewBox="0 0 1280 1024">
<defs>
<style>
.a,.b,.c,.d{fill:none;stroke:#ffe942;stroke-width:6px;stroke-miterlimit:10;stroke-linecap:round;}
</style>
</defs>
<path class="a" d="M765,361.26c14.2,7.7.6,32.6,14.8,40.4s27.8-17.2,41.9-9.5.6,32.6,14.8,40.4,27.8-17.2,42-9.5.6,32.6,14.8,40.4"/>
<path class="a" d="M144.41,373.76c4.62-15.54,34.45-6.66,39.18-22.14s-25.14-24.53-20.51-40.07,34.46-6.67,39.18-22.15-25.14-24.52-20.51-40.07,34.46-6.66,39.19-22.14"/>
<path class="a" d="M982.68,831.09c-13.3,9.41-27.32-10.53-40.62-1.12s.82,29.27-12.48,38.68-27.31-10.54-40.62-1.13.83,29.27-12.47,38.68-27.32-10.54-40.62-1.13"/>
<circle class="a" cx="456.67" cy="78.82" r="25.2"/>
<circle class="b" cx="114.8" cy="838.22" r="31"/>
<polygon class="c" points="411.69 479.45 361.27 519.15 420.86 543.11 411.69 479.45"/>
<polygon class="c" points="1046.53 95.18 1026.63 165.58 1097.53 147.58 1046.53 95.18"/>
<rect class="d" x="1203.52" y="555.21" width="58.03" height="58.03" transform="matrix(0.25, -0.97, 0.97, 0.25, 356.73, 1629.9)"/>
<rect class="d" x="607.03" y="713.81" width="49.94" height="49.94" transform="translate(-191.46 221.93) rotate(-17.34)"/>
</svg>
